<svg xmlns="http://www.w3.org/2000/svg" width="23" height="38" viewBox="0 0 23 38"><g><g><path fill="#42474c" d="M.238 1.77a.62.62 0 0 1 .555-.61 94.124 94.124 0 0 1 21.508 0 .62.62 0 0 1 .556.61v29.532a.619.619 0 0 1-.555.611c-1.07.123-2.142.228-3.216.314v2.15c.001.339-.28.615-.627.615h-.629v1.845c0 .34-.281.615-.628.615h-2.513a.622.622 0 0 1-.629-.615v-1.845h-.628a.622.622 0 0 1-.628-.616v-1.855a94.342 94.342 0 0 1-2.514 0v1.855c0 .34-.28.615-.628.615h-.628v1.846c0 .34-.281.615-.628.615H5.892a.622.622 0 0 1-.628-.615V34.99h-.628a.622.622 0 0 1-.628-.615v-2.149a93.593 93.593 0 0 1-3.215-.314.619.619 0 0 1-.555-.61zM21.6 2.32a92.823 92.823 0 0 0-20.106 0v20.369H21.6zM11.547 30.07c-1.386 0-2.513-1.103-2.513-2.46s1.127-2.461 2.513-2.461 2.513 1.104 2.513 2.46c0 1.358-1.127 2.461-2.513 2.461zm0-3.691c-.693 0-1.256.552-1.256 1.23 0 .679.563 1.231 1.256 1.231.693 0 1.257-.552 1.257-1.23 0-.679-.564-1.231-1.257-1.231zm3.142-14.766H8.406c-1.04 0-1.885-.828-1.885-1.846v-2.46c0-1.018.846-1.846 1.885-1.846h6.283c1.039 0 1.885.828 1.885 1.846v2.46c0 1.018-.846 1.846-1.885 1.846zM8.406 6.692a.623.623 0 0 0-.629.615v2.46c0 .34.283.615.629.615h2.827l1.697-2.214a.637.637 0 0 1 .88-.123c.277.204.333.59.125.861l-1.131 1.476h1.885a.623.623 0 0 0 .628-.615v-2.46a.623.623 0 0 0-.628-.615zm-2.514 27.07h3.142v-1.266a94.127 94.127 0 0 1-3.77-.176v1.441h.628zm.629 2.46h1.256v-1.23H6.521zm8.168-2.46h3.141V32.32a94.095 94.095 0 0 1-3.77.176v1.265h.629zm.628 2.46h1.257v-1.23h-1.257zM1.494 30.753c1.025.112 2.05.207 3.078.284a.622.622 0 0 1 .111 0c1.667.123 3.346.203 4.992.236.034.001.068.004.1.01a92.79 92.79 0 0 0 3.544 0 .643.643 0 0 1 .1-.01 93.246 93.246 0 0 0 4.992-.236.652.652 0 0 1 .108 0 92.294 92.294 0 0 0 3.081-.284v-6.835H1.494z"/></g></g></svg>