<svg xmlns="http://www.w3.org/2000/svg" width="37" height="34" viewBox="0 0 37 34"><g><g><path fill="#42474c" d="M34.587 10.903V28.71c0 .317-.27.574-.603.574H3.825c-.333 0-.603-.257-.603-.574V10.903c0-.317.27-.574.603-.574h30.159a.59.59 0 0 1 .603.574zm-1.206.575H4.428v16.656h28.953zM6.238 12.626h1.206v14.36H6.238zm2.413 0h1.206v14.36H8.65zm2.412 0h1.206v14.36h-1.206zm2.413 0h1.206v14.36h-1.206zm2.413 0h1.206v14.36h-1.206zm2.412 0h1.207v14.36H18.3zm2.413 0h1.206v14.36h-1.206zm2.413 0h1.206v14.36h-1.206zm2.412 0h1.207v14.36h-1.207zm2.413 0h1.206v14.36h-1.206zm2.413 0h1.206v14.36h-1.206zM37 9.181v20.676c-.003 2.22-1.892 4.018-4.222 4.021H5.03c-2.33-.003-4.22-1.801-4.222-4.02V9.18C.812 6.96 2.701 5.162 5.031 5.16h1.81v-.575c0-.317.27-.574.603-.574h2.413c.333 0 .603.257.603.574v.575h4.825V4.01H14.08c-.333 0-.603-.256-.603-.573V1.139a.59.59 0 0 1 .603-.574h9.65c.334 0 .604.257.604.574v2.298c0 .317-.27.574-.603.574h-1.206V5.16h3.279c.303-.668.862-1.201 1.564-1.49 1.52-.625 3.285.042 3.941 1.49h1.47c2.33.002 4.22 1.801 4.222 4.02zM26.746 6.308c-.013.77.521 1.453 1.3 1.661.948.252 1.93-.274 2.196-1.176.265-.902-.288-1.838-1.235-2.09-.947-.253-1.93.273-2.195 1.175-.041.14-.064.285-.066.43zm-3.62-3.446V1.714h-8.444v1.148zM16.493 4.01V5.16h4.825V4.01zm19.301 5.17c-.002-1.586-1.35-2.87-3.015-2.873H31.57c0 1.586-1.35 2.873-3.016 2.873-1.665 0-3.016-1.287-3.016-2.873H9.857c-.333 0-.603-.256-.603-.574V5.16H8.047v.574c0 .318-.27.574-.603.574H5.031c-1.664.002-3.013 1.287-3.015 2.873v20.676c.002 1.586 1.35 2.87 3.015 2.872h27.747c1.664-.002 3.013-1.286 3.015-2.872zM5.031 30.43h1.207v1.15H5.03zm0-22.4h1.207v1.15H5.03zm26.54 22.4h1.207v1.15H31.57z"/></g></g></svg>