<svg xmlns="http://www.w3.org/2000/svg" width="32" height="32" viewBox="0 0 32 32"><g><g><path fill="#42474c" d="M13.322 5.13L12.31 4.105 15.918.479l3.575 3.627-1.011 1.025-1.859-1.914v4.456h-1.411V3.212zm10.747.003l-.972-1.031L26.67.479l3.606 3.626-1.01 1.025-1.89-1.918v4.46h-1.412v-4.46zm-21.533 0l-.972-1.031L5.134.479l3.608 3.626-1.01 1.025-1.89-1.918v4.46H4.43v-4.46zm28.749 23.673c0 1.762-1.414 3.196-3.15 3.196H1.009v-1.433h27.126c.942 0 1.738-.807 1.738-1.763 0-.956-.796-1.763-1.738-1.763H4.647c-1.737 0-3.15-1.447-3.15-3.226 0-1.762 1.413-3.196 3.15-3.196h22.51c.943 0 1.739-.807 1.739-1.763 0-.955-.796-1.763-1.738-1.763H3.67c-1.737 0-3.15-1.433-3.15-3.195 0-.863.332-1.669.936-2.27a3.067 3.067 0 0 1 2.218-.895h27.122v1.432H3.67c-.942 0-1.738.808-1.738 1.763 0 .956.796 1.763 1.738 1.763h23.488c1.736 0 3.149 1.434 3.149 3.196 0 1.763-1.413 3.196-3.15 3.196H4.648c-.942 0-1.738.807-1.738 1.762 0 .957.796 1.764 1.738 1.764h23.488c1.737 0 3.15 1.433 3.15 3.195z"/></g></g></svg>