<?xml version="1.0" encoding="utf-8"?>
<!-- Generator: Adobe Illustrator 21.1.0, SVG Export Plug-In . SVG Version: 6.00 Build 0)  -->
<svg version="1.1" id="Слой_1" xmlns="http://www.w3.org/2000/svg" xmlns:xlink="http://www.w3.org/1999/xlink" x="0px" y="0px"
	 viewBox="0 0 25 27" style="enable-background:new 0 0 25 27;" xml:space="preserve">
<style type="text/css">
	.st0{fill:#E10600;}
</style>
<g>
	<g>
		<path class="st0" d="M24.9,20.8L24.9,20.8c0,0-2-3.8-6.8-0.7c0,0-0.1,0.1-0.1,0.1l0,0l0,0c-0.5,0.4-3,0.6-5.6,0.6
			c-2.6,0-5.1-0.2-5.6-0.6c0,0-0.1-0.1-0.1-0.1l0,0c-4.6-2.9-6.6,0.3-6.8,0.7C0,20.8,0,20.9,0,21c0,0.2,0.2,0.4,0.4,0.4v0L3,21.3
			c1.9,0.8,1,2.6,0.6,3.1c-0.9,0-4.1-0.1-2.8,1.4c1.6,1.9,3.8,1,5.9,0.1c0.8-0.3,1.6-0.7,2.3-0.8h3c0,0,0.1,0,0.1,0l3,0c0,0,0,0,0,0
			H16c0.9,0,2,0.4,3,0.9c1.9,0.8,3.8,1.6,5.2-0.1c1.3-1.5-1.9-1.5-2.8-1.4C21,23.9,20,22.2,22,21.3l2.6,0.1c0.1,0,0.2,0,0.2,0
			C25,21.2,25.1,21,24.9,20.8z M3.7,11.1c-0.2,0.1-0.3,0.4-0.2,0.6h0l2.1,3.6c0,0,0,0,0,0c0.1,0.2,0.4,0.3,0.6,0.2l0,0l2.1-1.2
			c0.2,0.2,0.5,0.4,0.8,0.5c0.3,0.2,0.6,0.3,0.9,0.4v2.4c0,0.2,0.2,0.4,0.4,0.4h4.3c0.2,0,0.4-0.2,0.4-0.4v-2.4
			c0.3-0.1,0.6-0.3,0.9-0.4c0.3-0.2,0.5-0.3,0.8-0.5l2,1.2c0,0,0,0,0,0c0.2,0.1,0.5,0,0.6-0.2l0,0l2.1-3.6c0,0,0,0,0,0
			c0.1-0.2,0-0.5-0.2-0.6l0,0l-2.1-1.2c0.1-0.6,0.1-1.2,0-1.9l2-1.2c0,0,0,0,0,0c0.2-0.1,0.3-0.4,0.2-0.6l0,0l-2.1-3.6c0,0,0,0,0,0
			c-0.1-0.2-0.4-0.3-0.6-0.2l0,0l-2.1,1.2c-0.2-0.2-0.5-0.4-0.8-0.5c-0.3-0.2-0.6-0.3-0.9-0.4V0.4c0-0.2-0.2-0.4-0.4-0.4h-4.3
			c-0.2,0-0.4,0.2-0.4,0.4v2.4C9.6,2.9,9.4,3,9.1,3.2C8.8,3.3,8.5,3.5,8.3,3.7l-2-1.2c0,0,0,0,0,0C6,2.4,5.8,2.5,5.6,2.7l0,0
			L3.5,6.3c0,0,0,0,0,0c-0.1,0.2,0,0.5,0.2,0.6l0,0l2.1,1.2c0,0.1,0,0.2,0,0.3c0,0.2,0,0.4,0,0.6c0,0.2,0,0.4,0,0.6
			c0,0.1,0,0.2,0,0.3L3.7,11.1C3.7,11.1,3.7,11.1,3.7,11.1z M9.8,6.3c0.7-0.7,1.7-1.1,2.7-1.1s2,0.4,2.7,1.1C15.9,7,16.4,8,16.4,9
			c0,1.1-0.4,2-1.1,2.7c-0.7,0.7-1.7,1.1-2.7,1.1s-2-0.4-2.7-1.1C9.1,11,8.6,10.1,8.6,9C8.6,8,9.1,7,9.8,6.3z"/>
	</g>
</g>
</svg>
