<?xml version="1.0" encoding="utf-8"?>
<!-- Generator: Adobe Illustrator 21.1.0, SVG Export Plug-In . SVG Version: 6.00 Build 0)  -->
<svg version="1.1" id="Слой_1" xmlns="http://www.w3.org/2000/svg" xmlns:xlink="http://www.w3.org/1999/xlink" x="0px" y="0px"
	 viewBox="0 0 30 19" style="enable-background:new 0 0 30 19;" xml:space="preserve">
<style type="text/css">
	.st0{fill:#E10600;}
</style>
<g>
	<g>
		<path class="st0" d="M17,0H0.7C0.3,0,0,0.3,0,0.7v14.9c0,0.4,0.3,0.7,0.7,0.7h3.5c0.4-1.8,2.2-3,4-2.6c1.3,0.3,2.4,1.3,2.7,2.6H17
			c0.4,0,0.7-0.3,0.7-0.7V0.7C17.7,0.3,17.4,0,17,0z M7.5,14.9c-1.1,0-2,0.9-2,2c0,1.1,0.9,2,2,2s2-0.9,2-2
			C9.5,15.8,8.6,14.9,7.5,14.9z M25.8,3c-0.1-0.2-0.3-0.3-0.5-0.3h-5.5c-0.4,0-0.7,0.3-0.7,0.7v4.8h10.6L25.8,3z M19.1,9.5v6.1
			c0,0.4,0.3,0.7,0.7,0.7h2.1c0.4-1.8,2.2-3,4-2.6c1.3,0.3,2.4,1.3,2.7,2.6h0.8c0.4,0,0.7-0.3,0.7-0.7V9.5H19.1z M25.2,14.9
			c-1.1,0-2,0.9-2,2c0,1.1,0.9,2,2,2s2-0.9,2-2C27.3,15.8,26.4,14.9,25.2,14.9z"/>
	</g>
</g>
</svg>
