<svg xmlns="http://www.w3.org/2000/svg" width="67" height="93" viewBox="0 0 67 93"><g><g><path fill="#e10600" d="M51.862 66.018c-4.827 6.877-10.818 15.428-17.44 26.452a1.1 1.1 0 0 1-.93.525c-.38 0-.729-.202-.927-.525-6.622-11.024-12.615-19.575-17.44-26.452C5.693 52.572.007 44.456.007 33.517.007 15.03 15.027-.01 33.49-.01c18.467 0 33.49 15.041 33.49 33.527 0 10.94-5.688 19.055-15.118 32.5zm7.11-32.512c0-14.078-11.42-25.486-25.491-25.486-14.066 0-25.486 11.408-25.486 25.486 0 14.07 11.42 25.487 25.486 25.487 14.079 0 25.49-11.416 25.49-25.487z"/></g></g></svg>