<?xml version="1.0" encoding="utf-8"?>
<!-- Generator: Adobe Illustrator 21.1.0, SVG Export Plug-In . SVG Version: 6.00 Build 0)  -->
<svg version="1.1" id="Слой_1" xmlns="http://www.w3.org/2000/svg" xmlns:xlink="http://www.w3.org/1999/xlink" x="0px" y="0px"
	 viewBox="0 0 25 27" style="enable-background:new 0 0 25 27;" xml:space="preserve">
<style type="text/css">
	.st0{fill:#E10600;}
</style>
<g>
	<g>
		<path class="st0" d="M4.8,12.4c0-4.2,3.1-7.6,7.1-7.9V0L0,2.7C0,3-0.7,22.4,11.9,27v-6.7C7.9,20,4.8,16.6,4.8,12.4z M19,12.4
			c0-3.7-2.9-6.7-6.5-6.7c-3.6,0-6.5,3-6.5,6.7c0,3.7,2.9,6.7,6.5,6.7C16.1,19.1,19,16.1,19,12.4z M11.5,15.5l-3-3.1l1-1.1l2,2
			l3.9-4l1,1.1L11.5,15.5z M25,2.7L13.1,0v4.6c4,0.3,7.1,3.7,7.1,7.9c0,4.2-3.2,7.6-7.2,7.9c0,0,0.1,0,0.1,0V27
			C25.6,22.6,25,3,25,2.7z"/>
	</g>
</g>
</svg>
