<svg xmlns="http://www.w3.org/2000/svg" width="17" height="16" viewBox="0 0 17 16"><g><g><path fill="#ee2a27" d="M17 5.19a5.318 5.318 0 0 1-1.44 3.679l-6.523 6.868a.766.766 0 0 1-1.126-.003L1.436 8.87c-1.92-2.021-1.924-5.32.002-7.349C3.416-.575 6.613-.472 8.49 1.652A4.754 4.754 0 0 1 12.1 0c2.698 0 4.895 2.325 4.9 5.191zm-1.593.003c-.004-1.929-1.485-3.504-3.306-3.504a3.205 3.205 0 0 0-2.894 1.796.777.777 0 0 1-1.403.018c-1.09-2.087-3.714-2.404-5.24-.787-1.303 1.372-1.295 3.596-.002 4.957l5.915 6.271 5.958-6.271a3.587 3.587 0 0 0 .972-2.48z"/></g></g></svg>