<svg xmlns="http://www.w3.org/2000/svg" width="14" height="13" viewBox="0 0 14 13"><defs><clipPath id="uospa"><path fill="#fff" d="M9.965 0c-1.16 0-2.232.497-2.974 1.345-1.545-1.73-4.177-1.814-5.807-.108C-.402 2.888-.399 5.574 1.183 7.22l5.332 5.59c.257.267.671.267.927.001l5.372-5.59A4.303 4.303 0 0 0 14 4.224c-.004-2.333-1.813-4.226-4.035-4.226z"/></clipPath></defs><g><g><path fill="none" stroke="#e10600" stroke-miterlimit="20" stroke-width="4" d="M9.965 0c-1.16 0-2.232.497-2.974 1.345-1.545-1.73-4.177-1.814-5.807-.108C-.402 2.888-.399 5.574 1.183 7.22l5.332 5.59c.257.267.671.267.927.001l5.372-5.59A4.303 4.303 0 0 0 14 4.224c-.004-2.333-1.813-4.226-4.035-4.226z" clip-path="url(&quot;#uospa&quot;)"/></g></g></svg>