<svg xmlns="http://www.w3.org/2000/svg" width="18" height="16" viewBox="0 0 18 16"><g><g><path fill="#fff" d="M6.503 12.771c.904 0 1.636.722 1.636 1.612 0 .89-.732 1.612-1.636 1.612a1.624 1.624 0 0 1-1.637-1.612c0-.89.733-1.612 1.637-1.612zm6.632 0c.904 0 1.637.722 1.637 1.612 0 .89-.733 1.612-1.637 1.612a1.624 1.624 0 0 1-1.636-1.612c0-.89.732-1.612 1.636-1.612zm4.2-10.246a.849.849 0 0 1 .645 1.018L16.71 8.91c-.304 1.353-1.522 2.315-2.929 2.312H6.718c-1.414.013-2.645-.952-2.95-2.312L2.11 1.697H0V0h2.8a.86.86 0 0 1 .839.658l1.809 7.87a1.29 1.29 0 0 0 1.27.998h7.063a1.29 1.29 0 0 0 1.25-.998L16.063 4.2H6.955V2.503H17.14c.066 0 .131.008.195.022z"/></g></g></svg>