<svg xmlns="http://www.w3.org/2000/svg" width="26" height="29" viewBox="0 0 26 29"><g><g><path fill="#fff" d="M25.64 16.513c-.401 2.296-1.342 4.284-3.429 5.588-1.103.688-2.355.963-3.601 1.244-2.293.516-4.62.711-6.965.59-.507-.026-.81.1-1.133.46-1.287 1.442-2.606 2.857-3.913 4.281-.1.11-.206.215-.31.322l-.108-.031v-.441c0-1.686-.003-3.373.004-5.059.001-.23-.037-.371-.295-.451-3.121-.967-4.795-3.178-5.475-6.22-.473-2.119-.46-4.263-.356-6.417.068-1.414.243-2.804.632-4.168.84-2.942 2.87-4.661 5.793-5.473 1.655-.46 3.34-.722 5.059-.75 2.173-.036 4.352-.05 6.484.43 1.133.254 2.253.602 3.34 1.008 1.902.71 3.028 2.157 3.699 4 .554 1.521.828 3.097.898 4.699.093 2.135.045 4.274-.324 6.388zM12.197 4.836c.032.13.141.23.276.25.085.012.158.024.224.036.134.022.25.043.374.049 1.964.097 3.585.851 4.818 2.241 1.04 1.174 1.581 2.666 1.653 4.562.006.148.034.283.062.414l.03.154a.334.334 0 0 0 .333.276.338.338 0 0 0 .291-.166c.905-1.546-.648-5.19-2.424-6.68-1.525-1.28-4.472-2.229-5.509-1.482a.328.328 0 0 0-.128.346zm5.173 5.12c.092.296.131.614.173.95.023.189.047.384.08.578.025.139.103.237.16.31a.653.653 0 0 1 .036.048c.062.096.17.154.285.154h.003a.338.338 0 0 0 .284-.159c.008-.013.02-.025.03-.038.054-.07.146-.188.147-.35l.002-.122c.003-.273.007-.555-.046-.839-.48-2.535-2.183-4.08-4.796-4.35-.152-.015-.29.017-.403.042-.038.01-.076.019-.113.025a.332.332 0 0 0-.283.318l-.004.168c-.005.16.108.3.268.333l.17.038a3 3 0 0 0 .437.081c1.687.15 3.088 1.254 3.57 2.813zm-3.238-1.838c-.163-.01-.29.072-.373.126-.017.01-.034.022-.05.03a.328.328 0 0 0-.053.559c.017.014.035.031.052.048.076.07.192.178.36.204 1.116.17 1.517.588 1.65 1.719.014.116.054.216.087.297.01.027.022.054.03.082a.337.337 0 0 0 .365.224l.142-.019a.334.334 0 0 0 .285-.265l.019-.08c.02-.078.043-.176.044-.284.01-1.493-1.043-2.58-2.558-2.641zm6.118 8.853c-1.02-.78-2.05-1.555-3.125-2.258-.615-.402-1.233-.217-1.702.347-.15.18-.292.367-.44.55-.387.483-.729.63-1.31.378-.67-.288-1.344-.611-1.926-1.04-1.214-.891-2.18-1.997-2.577-3.488-.159-.594-.072-1.109.486-1.484.23-.154.439-.34.642-.526.342-.314.505-.691.319-1.146-.567-1.387-1.481-2.539-2.577-3.546-.408-.374-.95-.38-1.432-.05-.423.288-.85.578-1.239.907-.938.795-1.088 1.317-.657 2.464 2.223 5.918 6.334 10.051 12.247 12.466.189.077.402.097.669.159.246-.069.561-.104.823-.238.964-.496 1.614-1.294 2.047-2.254.2-.44.16-.93-.248-1.241z"/></g></g></svg>