<svg xmlns="http://www.w3.org/2000/svg" width="36" height="42" viewBox="0 0 36 42"><g><g><path fill="#fff" d="M30.225 19.075a2.128 2.128 0 1 1-2.13 2.127c0-1.175.954-2.127 2.13-2.127zM6.405 33.832a2.126 2.126 0 1 1 0 4.251 2.127 2.127 0 1 1 0-4.25zM27.296 22.25a.53.53 0 0 1-.468.588c-.015.001-.422.05-.977.185a.534.534 0 0 1-.645-.39.533.533 0 0 1 .392-.641 9.362 9.362 0 0 1 1.111-.209.53.53 0 0 1 .587.467zm-3.131.766a.531.531 0 0 1-.185.728c-.613.37-.983.801-1.094 1.287a.532.532 0 0 1-1.038-.239c.18-.779.711-1.44 1.585-1.96a.532.532 0 0 1 .732.184zm.559 5.043a.53.53 0 0 1-.333.946.533.533 0 0 1-.335-.118c-.767-.617-1.268-1.121-1.63-1.633a.532.532 0 1 1 .87-.611c.301.428.742.864 1.428 1.416zm-1.743 5.748c.294.024.509.281.483.575a.529.529 0 0 1-.529.485c-.015 0-.03 0-.045-.002a7.26 7.26 0 0 1-2.26-.556.53.53 0 0 1-.279-.698.534.534 0 0 1 .701-.279c.593.256 1.24.416 1.929.475zm1.991-.13c.71-.16 1.318-.435 1.719-.78a.533.533 0 0 1 .752.056.53.53 0 0 1-.059.748c-.536.463-1.288.814-2.18 1.014a.533.533 0 0 1-.232-1.038zm1.469-4.294c.611.492 1.283 1.085 1.604 1.767a.53.53 0 1 1-.961.453c-.231-.488-.82-.998-1.31-1.39a.532.532 0 1 1 .667-.83zm-7.724 1.881c.203.357.448.684.73.974a.532.532 0 0 1-.765.741 5.763 5.763 0 0 1-.892-1.192 26.698 26.698 0 0 0-.403-.68.532.532 0 1 1 .908-.555c.142.233.28.47.422.712zm-5.272-5.391a.532.532 0 1 1-.347 1.005c-.617-.21-1.215-.22-1.774-.023a.531.531 0 1 1-.352-1.004c.786-.275 1.63-.267 2.473.022zM8.599 29.58a.536.536 0 0 1-.72.221.531.531 0 0 1-.22-.718c.38-.717.829-1.349 1.34-1.877a.532.532 0 0 1 .768.737 7.174 7.174 0 0 0-1.168 1.637zm8.423-.861a.53.53 0 0 1-.415.864.531.531 0 0 1-.417-.201 11.006 11.006 0 0 0-1.418-1.494.529.529 0 0 1-.058-.748.53.53 0 0 1 .749-.06c.523.444 1.048.998 1.559 1.639zM6.999 32.943a.534.534 0 0 1-.454-.602c.003-.02.068-.457.25-1.104a.532.532 0 0 1 .659-.365c.284.08.448.374.366.655-.161.567-.217.948-.22.965a.532.532 0 0 1-.601.45zm28.993-15.66v22.593a2.13 2.13 0 0 1-2.13 2.127H2.143a2.13 2.13 0 0 1-2.13-2.127V17.284a2.13 2.13 0 0 1 2.13-2.13h5.914c.621.882 1.251 1.604 1.75 2.13H2.142v22.592h31.722l-.003-22.592H23.36a19.201 19.201 0 0 0 1.75-2.13h8.752c1.176 0 2.13.955 2.13 2.13zM7.842 8.74c0-4.82 3.913-8.73 8.742-8.73 4.826 0 8.74 3.908 8.74 8.73 0 4.04-4.284 7.838-4.284 7.838-2.74 4.501-4.456 6.482-4.456 6.482s-1.719-1.98-4.46-6.482c0 0-4.283-3.798-4.283-7.838zm4.456-.26a4.282 4.282 0 0 0 4.286 4.28 4.281 4.281 0 0 0 4.283-4.28c0-2.364-1.92-4.279-4.283-4.279a4.283 4.283 0 0 0-4.286 4.28z"/></g></g></svg>