<svg xmlns="http://www.w3.org/2000/svg" width="14" height="15" viewBox="0 0 14 15"><g><g><path fill="#fff" d="M10.5 3.422c0 1.884-1.575 3.424-3.5 3.424s-3.5-1.54-3.5-3.424C3.5 1.54 5.075 0 7 0s3.5 1.54 3.5 3.423zm-5.667 0c0 1.179.962 2.12 2.167 2.12 1.204 0 2.167-.941 2.167-2.12 0-1.178-.963-2.12-2.167-2.12-1.205 0-2.167.942-2.167 2.12zM14 14.347c0 .36-.299.651-.667.651H.667A.66.66 0 0 1 0 14.347c0-3.937 3.123-7.175 7-7.175s7 3.238 7 7.175zm-12.604-.653h11.208C12.288 10.744 9.905 8.477 7 8.477c-2.905 0-5.288 2.267-5.604 5.217z"/></g></g></svg>