<svg xmlns="http://www.w3.org/2000/svg" width="20" height="13" viewBox="0 0 20 13"><g><g><path fill="#fff" d="M7.143 2.736c0-.378.32-.685.714-.685.395 0 .714.307.714.685 0 .378-.32.684-.714.684-.394 0-.714-.306-.714-.684zm5.714 4.105c0 .378-.32.684-.714.684-.395 0-.715-.306-.715-.684 0-.378.32-.684.715-.684.394 0 .714.306.714.684zm-5.49.488a.664.664 0 0 1-.01-.967l4.286-4.106a.74.74 0 0 1 .929 0c.3.246.334.678.078.965L8.364 7.327a.731.731 0 0 1-.997.003zM20 .683v8.21c0 .378-.32.685-.714.685h-8.572v2.052h3.572c.394 0 .714.306.714.684 0 .378-.32.685-.714.685H5.714c-.394 0-.714-.307-.714-.685 0-.378.32-.684.714-.684h3.572V9.578H.714C.32 9.578 0 9.27 0 8.894V.683c0-.378.32-.684.714-.684h18.572c.394 0 .714.306.714.684zm-1.429.684H1.428v6.842h17.143z"/></g></g></svg>