<svg xmlns="http://www.w3.org/2000/svg" width="36" height="42" viewBox="0 0 36 42"><g><g><path fill="#42474c" d="M30.225 19.075a2.128 2.128 0 1 1-2.13 2.126c0-1.174.954-2.126 2.13-2.126zM6.405 33.83a2.127 2.127 0 1 1 0 4.251 2.126 2.126 0 1 1 0-4.25zM27.296 22.25a.53.53 0 0 1-.468.588c-.015 0-.422.05-.977.185a.534.534 0 0 1-.645-.39.534.534 0 0 1 .392-.642 9.329 9.329 0 0 1 1.111-.208.53.53 0 0 1 .587.467zm-3.13.766a.531.531 0 0 1-.186.728c-.613.369-.983.8-1.094 1.287a.533.533 0 0 1-1.038-.239c.18-.78.711-1.44 1.585-1.96a.532.532 0 0 1 .732.184zm.558 5.042a.53.53 0 0 1-.333.947.532.532 0 0 1-.335-.119c-.767-.617-1.268-1.12-1.63-1.633a.532.532 0 1 1 .87-.612c.301.43.742.866 1.428 1.417zm-1.743 5.75c.294.022.509.28.483.574a.53.53 0 0 1-.529.485c-.015 0-.03 0-.045-.002a7.23 7.23 0 0 1-2.26-.557.53.53 0 0 1-.279-.698.533.533 0 0 1 .701-.278c.593.256 1.24.416 1.929.475zm1.991-.132c.71-.16 1.318-.434 1.719-.78a.532.532 0 1 1 .693.805c-.536.462-1.288.813-2.18 1.013a.534.534 0 0 1-.635-.401.534.534 0 0 1 .403-.637zm1.469-4.294c.611.492 1.283 1.085 1.604 1.768a.53.53 0 1 1-.961.453c-.231-.488-.82-.999-1.31-1.39a.532.532 0 0 1 .667-.83zm-7.724 1.881a4.8 4.8 0 0 0 .73.974.532.532 0 0 1-.765.742 5.766 5.766 0 0 1-.892-1.192 25.804 25.804 0 0 0-.403-.68.528.528 0 0 1 .178-.73.531.531 0 0 1 .73.175c.142.233.28.47.422.711zm-5.272-5.391a.532.532 0 1 1-.172 1.033.51.51 0 0 1-.175-.027c-.617-.211-1.215-.22-1.774-.023a.53.53 0 1 1-.352-1.004c.786-.275 1.63-.268 2.473.02zm-4.846 3.71a.538.538 0 0 1-.72.22.531.531 0 0 1-.22-.718c.38-.718.829-1.35 1.34-1.878a.532.532 0 0 1 .768.737 7.177 7.177 0 0 0-1.168 1.638zm8.423-.863a.53.53 0 0 1-.415.865.531.531 0 0 1-.417-.202 10.99 10.99 0 0 0-1.418-1.493.529.529 0 0 1-.058-.748.53.53 0 0 1 .749-.061c.523.445 1.048.999 1.559 1.64zM6.999 32.943a.534.534 0 0 1-.454-.602 9.42 9.42 0 0 1 .25-1.104.532.532 0 0 1 .659-.365.53.53 0 0 1 .367.656c-.162.566-.218.948-.22.965a.532.532 0 0 1-.602.45zm28.993-15.659v22.593a2.13 2.13 0 0 1-2.13 2.126H2.143a2.13 2.13 0 0 1-2.13-2.126V17.283a2.13 2.13 0 0 1 2.13-2.129h5.914c.621.881 1.251 1.603 1.75 2.129H2.142v22.593h31.722l-.003-22.593H23.36a19.196 19.196 0 0 0 1.75-2.129h8.752c1.176 0 2.13.955 2.131 2.129zM7.842 8.74c0-4.821 3.913-8.73 8.742-8.73 4.826 0 8.74 3.908 8.74 8.73 0 4.039-4.284 7.838-4.284 7.838-2.74 4.5-4.456 6.482-4.456 6.482s-1.719-1.981-4.46-6.482c0 0-4.283-3.799-4.283-7.838zm4.456-.26a4.282 4.282 0 0 0 4.286 4.279 4.28 4.28 0 0 0 4.283-4.279c0-2.364-1.92-4.28-4.283-4.28a4.284 4.284 0 0 0-4.286 4.28z"/></g></g></svg>