<svg xmlns="http://www.w3.org/2000/svg" width="14" height="14" viewBox="0 0 14 14"><g><g><path fill="#fff" d="M13.714 13.714a.893.893 0 0 1-.649.288h-.022a.955.955 0 0 1-.677-.275L9.623 10.98a5.935 5.935 0 0 1-2.316 1.037 6.155 6.155 0 0 1-3.797-.435A6.063 6.063 0 0 1 .013 5.638c.1-1.27.582-2.464 1.395-3.456C2.998.237 5.756-.514 8.113.355a6.23 6.23 0 0 1 2.898 2.215 6.08 6.08 0 0 1 1.109 3.318l.001.295a7.16 7.16 0 0 1-.082.878 5.87 5.87 0 0 1-1.08 2.582l2.743 2.747c.357.357.363.94.012 1.324zm-3.811-9.27c-.007-.017-.014-.034-.023-.05-.022-.05-.04-.084-.057-.119l-.022-.044c-.1-.195-.216-.39-.344-.574a1.13 1.13 0 0 1-.046-.072v-.001c-.011-.011-.022-.022-.033-.036l-.073-.089a5.525 5.525 0 0 0-.488-.507 3.027 3.027 0 0 0-.125-.11l-.087-.072-.014-.02a1.29 1.29 0 0 1-.086-.055c-.05-.037-.093-.065-.135-.093a4.018 4.018 0 0 0-.292-.178 3.553 3.553 0 0 0-.373-.188l-.025-.011c-.017-.007-.033-.015-.048-.023l-.011-.004a1.696 1.696 0 0 1-.057-.016 4.722 4.722 0 0 0-.865-.23c-.042-.002-.08-.01-.111-.016a4.57 4.57 0 0 0-1.051 0l-.078.009v-.001l-.012.002c-.068.01-.12.019-.17.03a5.066 5.066 0 0 0-.699.198.741.741 0 0 1-.069.022l-.003.003-.11.046a5.07 5.07 0 0 0-.78.45l-.062.04-.016.011a.73.73 0 0 1-.038.034l-.103.087a4.849 4.849 0 0 0-.573.58c-.029.034-.046.057-.064.079l-.033.036-.045.07a5.055 5.055 0 0 0-.183.277 5.017 5.017 0 0 0-.25.466l-.044.097a.49.49 0 0 1-.03.057l-.007.026a1.498 1.498 0 0 1-.017.056l-.058.174a4.47 4.47 0 0 0-.168.73c-.007.06-.012.117-.017.173a4.895 4.895 0 0 0 .029 1.041c.015.099.038.21.065.32.05.204.116.412.21.66.01.018.017.035.025.052l.013.03c.016.035.034.07.052.105l.021.043a4.707 4.707 0 0 0 .363.6l.04.062a4.748 4.748 0 0 0 .71.731l.074.063c.013.01.024.02.035.032l.003.001c.026.016.05.033.07.047l.135.092c.19.126.391.238.614.342l.08.035.093.036.057.023c.101.036.208.071.318.103.113.028.232.06.351.083l.18.033a.267.267 0 0 0 .023.004l.028.003a4.854 4.854 0 0 0 1.146 0l.016-.002a.25.25 0 0 1 .038-.006l.161-.03a4.72 4.72 0 0 0 .67-.187.844.844 0 0 1 .1-.032.579.579 0 0 1 .063-.032l.07-.032c.112-.052.213-.102.309-.156.189-.103.368-.228.542-.35.013-.011.026-.022.039-.031l.084-.073a5.12 5.12 0 0 0 .575-.583l.052-.062.037-.043.01-.015c.014-.023.028-.044.04-.06a4.67 4.67 0 0 0 .36-.601l.029-.06a4.88 4.88 0 0 0 .07-.151l.003-.009a.61.61 0 0 1 .015-.033l.008-.017.01-.021V7.64c.008-.027.015-.052.021-.068a4.774 4.774 0 0 0 .232-.89l.005-.046.02-.211c.007-.112.013-.232.013-.353 0-.132-.006-.248-.017-.346l-.016-.16-.005-.024-.004-.022a.578.578 0 0 1-.008-.076 4.433 4.433 0 0 0-.158-.654c-.022-.072-.045-.135-.067-.198l-.02-.065-.003-.01a.604.604 0 0 1-.02-.043l-.013-.029s.006.014-.001-.003z"/></g></g></svg>