<svg xmlns="http://www.w3.org/2000/svg" width="15" height="14" viewBox="0 0 15 14"><defs><clipPath id="zi2ga"><path fill="#fff" d="M14.974 5.2a.503.503 0 0 0-.414-.328L9.982 4.28 7.887.27a.508.508 0 0 0-.458-.27.508.508 0 0 0-.45.282L5.037 4.238a.218.218 0 0 1-.17.118L.426 5.04a.495.495 0 0 0-.422.564c.017.108.07.207.152.282L3.5 8.984l-.727 4.443a.495.495 0 0 0 .42.565.513.513 0 0 0 .32-.054l4.062-2.136 4.117 2.036c.25.124.554.027.681-.216a.483.483 0 0 0 .047-.314l-.844-4.422 3.275-3.179a.484.484 0 0 0 .122-.507z"/></clipPath></defs><g><g><path fill="none" stroke="#ddd" stroke-miterlimit="20" stroke-width="2" d="M14.974 5.2a.503.503 0 0 0-.414-.328L9.982 4.28v0L7.887.27a.508.508 0 0 0-.458-.27.508.508 0 0 0-.45.282L5.037 4.238v0a.218.218 0 0 1-.17.118L.426 5.04a.495.495 0 0 0-.422.564c.017.108.07.207.152.282L3.5 8.984v0l-.727 4.443a.495.495 0 0 0 .42.565.513.513 0 0 0 .32-.054l4.062-2.136v0l4.117 2.036c.25.124.554.027.681-.216a.483.483 0 0 0 .047-.314l-.844-4.422v0l3.275-3.179a.484.484 0 0 0 .122-.507z" clip-path="url(&quot;#zi2ga&quot;)"/></g></g></svg>